<svg width="24" height="24" viewBox="0 0 24 24" fill="none" xmlns="http://www.w3.org/2000/svg">
<path d="M0 12C0 5.37258 5.37258 0 12 0C18.6274 0 24 5.37258 24 12C24 18.6274 18.6274 24 12 24C5.37258 24 0 18.6274 0 12Z" fill="#5497EF"/>
<path d="M6.33325 16.3332C6.33325 13.7654 6.33325 7.6665 6.33325 7.6665C6.33325 6.56193 7.22868 5.6665 8.33325 5.6665H15.6666V14.3332C15.6666 14.3332 10.0775 14.3332 8.33325 14.3332C7.23325 14.3332 6.33325 15.2279 6.33325 16.3332Z" fill="white" stroke="white" stroke-width="1.33333" stroke-linejoin="round"/>
<path d="M15.6666 14.3335C15.6666 14.3335 8.71782 14.3335 8.33325 14.3335C7.22868 14.3335 6.33325 15.2289 6.33325 16.3335C6.33325 17.4381 7.22868 18.3335 8.33325 18.3335C9.06962 18.3335 12.6252 18.3335 17.6666 18.3335V6.3335" stroke="white" stroke-width="1.33333" stroke-linecap="round" stroke-linejoin="round"/>
<path d="M8.6665 16.3335H15.3332" stroke="white" stroke-width="1.33333" stroke-linecap="round" stroke-linejoin="round"/>
</svg>
