<svg width="24" height="24" viewBox="0 0 24 24" fill="none" xmlns="http://www.w3.org/2000/svg">
<path d="M0 12C0 5.37258 5.37258 0 12 0C18.6274 0 24 5.37258 24 12C24 18.6274 18.6274 24 12 24C5.37258 24 0 18.6274 0 12Z" fill="#F78176"/>
<path d="M6.66675 7.3335V17.3335C6.66675 16.2282 7.12083 16.0002 8.80008 16.0002H17.3334V5.3335H8.80008C7.62188 5.3335 6.66675 6.22893 6.66675 7.3335Z" fill="white" stroke="white" stroke-width="1.33333" stroke-linecap="round" stroke-linejoin="round"/>
<path d="M10.6155 7.5L13.1324 8.67525" stroke="#F78176" stroke-width="1.33" stroke-linecap="round" stroke-linejoin="round"/>
<path d="M11.823 10.8232L15.3467 12.4686" stroke="#F78176" stroke-width="1.33" stroke-linecap="round" stroke-linejoin="round"/>
<path d="M8.75171 12.1484L10.8672 7.618" stroke="#F78176" stroke-width="1.33" stroke-linecap="round" stroke-linejoin="round"/>
<path d="M10.7651 13.0884L12.8806 8.55794" stroke="#F78176" stroke-width="1.33" stroke-linecap="round" stroke-linejoin="round"/>
<path d="M8.5 12.0308L11.0169 13.206" stroke="#F78176" stroke-width="1.33" stroke-linecap="round" stroke-linejoin="round"/>
<path fill-rule="evenodd" clip-rule="evenodd" d="M8.00008 18.6667H17.3334V16H8.00008C7.2637 16 6.66675 16.597 6.66675 17.3333C6.66675 18.0697 7.2637 18.6667 8.00008 18.6667Z" stroke="white" stroke-width="1.33333" stroke-linecap="round" stroke-linejoin="round"/>
</svg>
